With: Kevin Spacey, John Cusack and Alison Eastwood

De film, gesitueerd in het pittoreske Savannah in de staat Georgia, analyseert tegelijkertijd de opmerkelijke inwoners van dit stadje en de ontwikkelingen die plaatsvinden nadat een moord is gepleegd. Dit alles gezien door de ogen van een schrijver uit New York die langzaam betrokken raakt bij de gebeurtenissen.

A visiting city reporter's assignment suddenly revolves around the murder trial of a local millionaire, whom he befriends. 

------------------ Dutch Friends ------------------
You can find my Friends at: http://www.Film-Test.nl 
------ They got my dutchs subs ---- and more ------

General:

Complete name                    : Midnight in the Garden of Good and Evil\Midnight in the Garden of Good and Evil.avi
Format                           : AVI
Format/Info                      : Audio Video Interleave
File size                        : 2.16 GiB
Duration                         : 2h 28mn
Overall bit rate                 : 2 074 Kbps

Video:

Format                           : MPEG-4 Visual
Format profile                   : Simple@L3
Format settings, BVOP            : No
Format settings, QPel            : No
Format settings, GMC             : No warppoints
Format settings, Matrix          : Default (H.263)
Codec ID                         : XVID
Codec ID/Hint                    : XviD
Duration                         : 2h 28mn
Bit rate                         : 1 679 Kbps
Width                            : 652 pixels
Height                           : 352 pixels
Display aspect ratio             : 1.852
Frame rate                       : 25.000 fps
Color space                      : YUV
Chroma subsampling               : 4:2:0
Bit depth                        : 8 bits
Scan type                        : Progressive
Bits/(Pixel*Frame)               : 0.293
Stream size                      : 1.74 GiB (81%)
Writing library                  : XviD 1.1.2 (UTC 2006-11-01)

Audio:

Format                           : AC-3
Format/Info                      : Audio Coding 3
Mode extension                   : CM (complete main)
Codec ID                         : 2000
Duration                         : 2h 28mn
Bit rate mode                    : Constant
Bit rate                         : 384 Kbps
Channel(s)                       : 6 channels
Channel positions                : Front: L C R, Side: L R, LFE
Sampling rate                    : 48.0 KHz
Bit depth                        : 16 bits
Stream size                      : 409 MiB (19%)
Alignment                        : Aligned on interleaves
Interleave, duration             : 32 ms (0.80 video frame)
Interleave, preload duration     : 320 ms

